# xmcd
#
# Track frame offsets: 
#        187
#        28962
#        52465
#        78092
#        98037
#        132225
#        157425
#        182092
#        207682
#        211542
#
# Disc length: 3170 seconds
#
# Revision: 9
# Processed by: cddbd v1.5.2PL0 Copyright (c) Steve Scherf et al.
# Submitted via: ExactAudioCopy v1.0b3
#
DISCID=940c600a
DTITLE=ANTHRAX - STATE OF EUPHORIA (JAPANESE EDITION)
DYEAR=1988
DGENRE=Thrash Metal
TTITLE0=Be All, End All
TTITLE1=Out Of Sight, Out Of Mind
TTITLE2=Make Me Laugh
TTITLE3=Antisocial
TTITLE4=Who Cares Wins
TTITLE5=Now It's Dark
TTITLE6=Schism
TTITLE7=Misery Loves Company
TTITLE8=13
TTITLE9=Finale
EXTD=P&C 1988 Island Records\n\nCharlie Benante (dr]\nDan Spitz (lg]\n
EXTD=Joe Belladonna (voc]\nFrank Bello (bg]\nScott Ian (rg) YEAR: 1988
EXTT0=
EXTT1=
EXTT2=
EXTT3=
EXTT4=
EXTT5=
EXTT6=
EXTT7=
EXTT8=
EXTT9=
PLAYORDER=
